<svg xmlns="http://www.w3.org/2000/svg" version="1.1" xmlns:xlink="http://www.w3.org/1999/xlink"  viewBox="0 0 48 48" width="48" height="48"><title>Exported from Streamline App (https://app.streamlineicons.com)</title><g transform="matrix(2,0,0,2,0,0)"><path d="M 12,0.5c6.351,0,11.5,5.149,11.5,11.5S18.351,23.5,12,23.5S0.5,18.351,0.5,12S5.649,0.5,12,0.5z "  fill="none" stroke-width="1" stroke-linecap="round" stroke-linejoin="round"></path><path d="M 12,8.5 c1.933,0,3.5,1.567,3.5,3.5s-1.567,3.5-3.5,3.5S8.5,13.933,8.5,12S10.067,8.5,12,8.5z "  fill="none" stroke-width="1" stroke-linecap="round" stroke-linejoin="round"></path><path d="M 15.5,18.063 c-3.349,1.932-7.629,0.784-9.562-2.564S5.154,7.869,8.503,5.937C9.566,5.323,10.772,5,12,5c9.5,0,9,10.5,5,10.5 c-1.5,0-1.5-1-1.5-1.5V9"  fill="none" stroke-width="1" stroke-linecap="round" stroke-linejoin="round"></path></g></svg>