<svg xmlns="http://www.w3.org/2000/svg" version="1.1" xmlns:xlink="http://www.w3.org/1999/xlink"  viewBox="0 0 48 48" width="48" height="48"><title>Exported from Streamline App (https://app.streamlineicons.com)</title><g transform="matrix(2,0,0,2,0,0)"><path d="M 6.5,22.5h-5v-13h5V22.5z "  fill="none" stroke-width="1" stroke-linecap="round" stroke-linejoin="round"></path><path d="M 15.5,13.5c-1.105,0-2,0.895-2,2v7h-5v-13h5v1.485 c1.116-0.946,2.527-1.475,3.99-1.495c2.962,0,5.01,2.2,5.01,6.355V22.5h-5v-7C17.5,14.395,16.605,13.5,15.5,13.5z "  fill="none" stroke-width="1" stroke-linecap="round" stroke-linejoin="round"></path><path d="M 6.5,5 c0,1.381-1.119,2.5-2.5,2.5S1.5,6.381,1.5,5S2.619,2.5,4,2.5S6.5,3.619,6.5,5z"  fill="none" stroke-width="1" stroke-linecap="round" stroke-linejoin="round"></path></g></svg>