<svg xmlns="http://www.w3.org/2000/svg" version="1.1" xmlns:xlink="http://www.w3.org/1999/xlink"  viewBox="0 0 48 48" width="48" height="48"><title>Exported from Streamline App (https://app.streamlineicons.com)</title><g transform="matrix(2,0,0,2,0,0)"><path d="M 6.5,17.5h-5c-0.552,0-1-0.448-1-1v-8c0-1.657,1.343-3,3-3s3,1.343,3,3V17.5z "  fill="none" stroke-width="1" stroke-linecap="round" stroke-linejoin="round"></path><path d="M 3.5,5.5h17c1.657,0,3,1.343,3,3 v8c0,0.552-0.448,1-1,1h-16 "  fill="none" stroke-width="1" stroke-linecap="round" stroke-linejoin="round"></path><path d="M 13.5,17.5v6 "  fill="none" stroke-width="1" stroke-linecap="round" stroke-linejoin="round"></path><path d="M 2.5,15.5h2 "  fill="none" stroke-width="1" stroke-linecap="round" stroke-linejoin="round"></path><path d="M 4.5,5.5v-3 "  fill="none" stroke-width="1" stroke-linecap="round" stroke-linejoin="round"></path><path d="M 4.5,0.5h3v2h-3V0.5z"  fill="none" stroke-width="1" stroke-linecap="round" stroke-linejoin="round"></path></g></svg>