<svg xmlns="http://www.w3.org/2000/svg" version="1.1" xmlns:xlink="http://www.w3.org/1999/xlink"  viewBox="0 0 48 48" width="48" height="48"><title>Exported from Streamline App (https://app.streamlineicons.com)</title><g transform="matrix(2,0,0,2,0,0)"><path d="M 1.5,3.501h20c0.552,0,1,0.448,1,1v18c0,0.552-0.448,1-1,1h-20c-0.552,0-1-0.448-1-1v-18 C0.5,3.949,0.948,3.501,1.5,3.501z "  fill="none" stroke-width="1" stroke-linecap="round" stroke-linejoin="round"></path><path d="M 3.5,1.501v3 "  fill="none" stroke-width="1" stroke-linecap="round" stroke-linejoin="round"></path><path d="M 7.5,1.501v3 "  fill="none" stroke-width="1" stroke-linecap="round" stroke-linejoin="round"></path><path d="M 11.5,1.501v3 "  fill="none" stroke-width="1" stroke-linecap="round" stroke-linejoin="round"></path><path d="M 15.5,1.501v3 "  fill="none" stroke-width="1" stroke-linecap="round" stroke-linejoin="round"></path><path d="M 19.5,1.501v3 "  fill="none" stroke-width="1" stroke-linecap="round" stroke-linejoin="round"></path><path d="M 12.5,8.5h3l0,0v4l0,0h-4 l0,0v-3C11.5,8.948,11.948,8.5,12.5,8.5z "  fill="none" stroke-width="1" stroke-linecap="round" stroke-linejoin="round"></path><path d="M 15.5,8.5h3c0.552,0,1,0.448,1,1v3l0,0h-4l0,0V8.5L15.5,8.5z "  fill="none" stroke-width="1" stroke-linecap="round" stroke-linejoin="round"></path><path d="M 11.5,12.501h4v4h-4V12.501z "  fill="none" stroke-width="1" stroke-linecap="round" stroke-linejoin="round"></path><path d="M 15.5,12.501h4v4h-4V12.501z "  fill="none" stroke-width="1" stroke-linecap="round" stroke-linejoin="round"></path><path d="M 11.5,16.501h4v4h-4V16.501z "  fill="none" stroke-width="1" stroke-linecap="round" stroke-linejoin="round"></path><path d="M 15.5,16.5h4l0,0v3c0,0.552-0.448,1-1,1h-3l0,0V16.5L15.5,16.5z "  fill="none" stroke-width="1" stroke-linecap="round" stroke-linejoin="round"></path><path d="M 4.5,12.5h3l0,0v4l0,0h-4l0,0v-3C3.5,12.948,3.948,12.5,4.5,12.5z "  fill="none" stroke-width="1" stroke-linecap="round" stroke-linejoin="round"></path><path d="M 7.5,12.501h4v4h-4V12.501z "  fill="none" stroke-width="1" stroke-linecap="round" stroke-linejoin="round"></path><path d="M 3.5,16.5h4l0,0v4l0,0h-3 c-0.552,0-1-0.448-1-1V16.5L3.5,16.5z "  fill="none" stroke-width="1" stroke-linecap="round" stroke-linejoin="round"></path><path d="M 7.5,16.501h4v4h-4V16.501z"  fill="none" stroke-width="1" stroke-linecap="round" stroke-linejoin="round"></path></g></svg>