<svg xmlns="http://www.w3.org/2000/svg" version="1.1" xmlns:xlink="http://www.w3.org/1999/xlink"  viewBox="0 0 48 48" width="48" height="48"><title>Exported from Streamline App (https://app.streamlineicons.com)</title><g transform="matrix(2,0,0,2,0,0)"><path d="M 6.5,0.501c2.209,0,4,1.791,4,4s-1.791,4-4,4s-4-1.791-4-4S4.291,0.501,6.5,0.501z "  fill="none" stroke-width="1" stroke-linecap="round" stroke-linejoin="round"></path><path d="M 17.5,0.501 c2.209,0,4,1.791,4,4s-1.791,4-4,4s-4-1.791-4-4S15.291,0.501,17.5,0.501z "  fill="none" stroke-width="1" stroke-linecap="round" stroke-linejoin="round"></path><path d="M 10.5,4.5C10.5,3.672,11.172,3,12,3s1.5,0.672,1.5,1.5 "  fill="none" stroke-width="1" stroke-linecap="round" stroke-linejoin="round"></path><path d="M 2.5,4.501H1 "  fill="none" stroke-width="1" stroke-linecap="round" stroke-linejoin="round"></path><path d="M 23,4.501h-1.5 "  fill="none" stroke-width="1" stroke-linecap="round" stroke-linejoin="round"></path><path d="M 12,23.5l-7.309-2.374C4.279,20.992,4,20.608,4,20.175v-7.9c0-0.552,0.448-1,1-1 c0.105,0,0.209,0.017,0.309,0.049L12,13.5V23.5z "  fill="none" stroke-width="1" stroke-linecap="round" stroke-linejoin="round"></path><path d="M 12,13.5l6.691-2.174c0.525-0.171,1.089,0.117,1.26,0.642 c0.033,0.1,0.049,0.205,0.049,0.31v7.9c0,0.433-0.279,0.817-0.691,0.951L12,23.5 "  fill="none" stroke-width="1" stroke-linecap="round" stroke-linejoin="round"></path><path d="M 15.775,17.637l1.5-0.428 C17.704,17.086,18,16.694,18,16.247v-0.42c0-0.552-0.448-1-1-1c-0.093,0-0.185,0.013-0.275,0.039l-1.5,0.428 c-0.429,0.123-0.725,0.515-0.725,0.962v0.42c0,0.552,0.448,1,1,1C15.593,17.676,15.686,17.663,15.775,17.637z"  fill="none" stroke-width="1" stroke-linecap="round" stroke-linejoin="round"></path></g></svg>