<svg xmlns="http://www.w3.org/2000/svg" version="1.1" xmlns:xlink="http://www.w3.org/1999/xlink" xmlns:svgjs="http://svgjs.com/svgjs" viewBox="0 0 48 48" width="48" height="48"><title>Exported from Streamline App (https://app.streamlineicons.com)</title><g transform="matrix(2,0,0,2,0,0)"><path d="M 23,6.628l-2-0.5l1-2l-2.464,0.7c-1.809-1.688-4.644-1.589-6.332,0.22c-0.78,0.836-1.21,1.938-1.204,3.08v1 c-3.539,0.73-6.634-1.2-9.5-4.5c-0.5,2.667,0,4.667,1.5,6l-3-0.5c0.405,2.069,1.362,3.7,4,4l-2.5,1c1,2,2.566,2.31,5,2.5 c-1.893,1.353-4.174,2.054-6.5,2c12.755,5.669,20-2.664,20-10V8.3L23,6.628z"  fill="none" stroke-width="1" stroke-linecap="round" stroke-linejoin="round"></path></g></svg>